# xmcd
#
# Track frame offsets:
# 150
# 23592
# 38420
# 62889
# 76473
# 103250
# 125284
# 146875
# 166460
# 186529
# 205647
# 225477
# 242060
# 262373
# 281807
# 298037
#
# Disc length: 4198 seconds
#
# Revision: 0
# Processed by: cddbd v1.4PL0 Copyright (c) Steve Scherf et al.
# Submitted via: Audion 2.5.0 (http://www.panic.com/audion/)
#
DISCID=f2106410
DTITLE=gdfgsdgdfsg - gfghdg
DYEAR=1900
DGENRE=
TTITLE0=jkl
TTITLE1=jklj
TTITLE2=klj
TTITLE3=klj
TTITLE4=klj
TTITLE5=kll
TTITLE6=kj;kl
TTITLE7=j;kl
TTITLE8=j;kl
TTITLE9=j;l
TTITLE10=jkl
TTITLE11=j;kl
TTITLE12=j;l
TTITLE13=kjkl
TTITLE14=j;kl
TTITLE15=jl
EXTD=
EXTT0=
EXTT1=
EXTT2=
EXTT3=
EXTT4=
EXTT5=
EXTT6=
EXTT7=
EXTT8=
EXTT9=
EXTT10=
EXTT11=
EXTT12=
EXTT13=
EXTT14=
EXTT15=
PLAYORDER=
